<?xml version="1.0" encoding="UTF-8"?>
<!DOCTYPE svg PUBLIC "-//W3C//DTD SVG 1.1//EN" "http://www.w3.org/Graphics/SVG/1.1/DTD/svg11.dtd">
<!-- Creator: CorelDRAW 2020 (64-Bit) -->
<svg xmlns="http://www.w3.org/2000/svg" xml:space="preserve" width="8.5in" height="11in" version="1.1" style="shape-rendering:geometricPrecision; text-rendering:geometricPrecision; image-rendering:optimizeQuality; fill-rule:evenodd; clip-rule:evenodd"
viewBox="0 0 8500 11000"
 xmlns:xlink="http://www.w3.org/1999/xlink"
 xmlns:xodm="http://www.corel.com/coreldraw/odm/2003">
 <defs>
  <style type="text/css">
   <![CDATA[
    .fil0 {fill:#C7C387}
   ]]>
  </style>
 </defs>
 <g id="Layer_x0020_1">
  <metadata id="CorelCorpID_0Corel-Layer"/>
  <g id="_1904718866448">
   <path class="fil0" d="M4493.06 6186.89c-6.79,-68.65 67.15,-102.5 135.39,-118.41 -16.02,50.56 -76.26,139.93 -135.39,118.41zm-53.59 -639.17c88.19,-173.22 358.67,-504.52 514.35,-563.4 -14.93,62.7 -191.19,270.08 -236.19,312.57 -140.13,132.35 -102.8,119.95 -278.16,250.82zm-150.39 371.24c6.01,-47.89 41.4,-146.54 62.47,-192.89 18.54,-40.77 36.62,-39.33 69.31,-61.45 213.1,-144.18 413.34,-356.9 560.06,-567.48 138.41,-198.67 -3.05,-244.44 -138.28,-138.37 -186.82,146.55 -334.67,299.65 -468.08,538.72 -238.94,428.19 12.01,216.28 -356.78,529.19 -22.84,19.39 -40.19,38.11 -81.27,32.17 -21.86,-107.8 129.31,-177.34 87.47,-320.93 -104.89,-51.96 -171.82,48.43 -229.71,90.06 23.91,-47.37 100.01,-148.17 60.58,-220.46 -47.31,-86.74 -155.53,-11.52 -198.89,27.11 -50.57,45.06 -115.48,94.19 -162.26,139.94 -51.74,50.61 -94.33,100.28 -145.63,146.1 29.82,-101.63 121.45,-154.94 91.8,-198.93 -33.8,-41.17 -53.01,-21.52 -77.66,11.78 -148.18,200.13 -455.29,75.07 -639.62,9.22 -115.13,-41.13 -249.24,-95.91 -377.06,-116.3 -374.99,-59.81 -374.4,212.1 -264.19,125.98 24.57,-19.2 21.74,-26.48 60.48,-41.55 50.96,-19.82 121.93,-18.76 179.81,-11.06 310.81,41.37 551.1,269.99 941.77,198.36 -26.46,87.39 -102.09,185.93 -58.74,265.96 65.55,4.46 54.26,-15.33 88.92,-56.23 73.78,-87.06 408.2,-456.5 495.31,-456.38 -3.44,43.27 -88.31,176.44 -114.66,222.8 -29.76,52.35 -112.12,167.44 -101.9,227.14 66.46,42.24 58.98,19.5 104.17,-33.35 61.91,-72.41 191.31,-223.02 267.56,-256.57 -20.06,82.76 -160.74,243.84 -45.12,315.26 101.92,62.96 228.87,-100.89 284.86,-133.37 -3.98,51.35 -61.48,278.16 -16.52,319.13 65.63,51.64 99.89,-140.5 120.37,-197.29 44.68,-123.88 167.37,-355.36 302.91,-371.92 106.24,-12.98 106.98,146.22 76.57,228.57 -92.96,43.19 -166.59,42.89 -220.48,111.17 -117.91,149.39 96.8,330.09 252.76,31.39 31.24,-59.85 6.37,-66.04 77.87,-82.69 37.87,-8.81 89.34,-18.03 115.83,-33.61 4.89,65.19 -20.07,95.5 19.44,161.58 102.67,171.7 331.98,-30.21 386.36,-69.92 214.36,-156.55 228.17,-339.46 406.02,-379.61 255.21,-57.63 663.9,210.71 946.06,218.02 111.78,2.89 256.72,-39.2 249.98,-136.51 -62.98,-48.58 -61.15,3.21 -108.44,29.33 -207.32,114.54 -667.22,-173.16 -946.59,-195.34 -267.19,-21.22 -335.78,110.2 -441.35,247.46 -193.55,251.67 -520.1,403.67 -418.95,104.18 26.11,-77.32 124.25,-236.22 221.11,-283.24 62.67,-30.43 61.26,1.59 61.3,1.63 44.15,54.66 -78.57,95.1 -118.62,121.81l9.92 54.8c85.77,15.24 190.67,-67.77 196.98,-152.46 12.5,-167.67 -227.78,-164.52 -380.87,96.82 -48,81.94 -55.19,108.87 -219.29,138.58 31.16,-475.05 -322.62,-302.29 -467.08,-36.36z"/>
   <path class="fil0" d="M2301.88 5401.98c34.86,-4.81 27.69,25.48 43.53,-80.47 54.46,-364.22 229.93,-690.47 445.92,-974.34 32.16,-42.26 88.07,-106.79 123.92,-137.69 56.96,-49.09 115.75,-115.79 199.18,-183.5l231.72 -161.11c595.93,-375.57 1419.72,-406.8 2051.31,-92.03 110.08,54.85 233.27,127.3 319.09,193.98l215.83 176.91c30.26,33.8 28.42,38.57 63.61,66.96 59.76,48.23 187.89,220.11 229.98,283.68 74.28,112.17 120.72,192.81 184.65,328.58 102.12,216.88 167.42,481.62 183.12,726.94 3.58,55.94 -8.11,69.8 45.86,77.21 22.75,-222.4 -108.26,-667.74 -194.29,-838.69 -78.78,-156.54 -143.48,-281.55 -244.77,-409.64 -54.52,-68.94 -117.73,-151.96 -184.04,-208.49 -28.2,-24.04 -38.24,-36.02 -63.74,-67.35 -77.03,-94.59 -420.44,-317.07 -542.28,-373.75 -541.36,-251.85 -1170,-292.66 -1731.38,-74.5 -288.03,111.93 -458.11,233.2 -655.56,391.32 -48.18,38.58 -87.5,90.04 -131.91,129.64 -48.97,43.66 -79.2,83.26 -125.01,136.59 -227.67,265.03 -416.28,676.48 -468.72,1033.34 -5.56,37.83 -9.48,28.23 3.96,56.4z"/>
   <path class="fil0" d="M2354.88 6129.31c-10.75,-57.64 -3.83,-54.73 -54.57,-67.35 25.26,233.7 159.57,557.91 260.22,728.69 247.85,420.53 601.11,734.73 1048.13,926.39 642.42,275.42 1379,214.3 1975.81,-143.48 54.52,-32.68 94.85,-59.48 146.52,-95.22l206.64 -166.25c39.35,-33.5 60.35,-71.62 120.13,-121.35 32.23,-26.81 31.44,-33.55 56.24,-64.81l112.23 -139.28c152.96,-220.7 333.61,-553.15 372.7,-844.76l-38.5 -5.67c-69.37,120.33 -26.39,363.06 -432.63,903.15 -66.69,88.66 -137.49,148.17 -173.17,189.19 -166.06,190.91 -497.07,382.49 -733.11,474.73 -804.11,314.22 -1729.15,79.96 -2269.01,-479.1 -76.41,-79.13 -75.63,-58.03 -174.28,-188.24 -204.53,-269.96 -359.83,-566.07 -423.34,-906.63z"/>
   <path class="fil0" d="M2221.34 5406.13c11.43,-13.34 71.83,-311.18 108.91,-422.28 104.25,-312.41 282.92,-603.08 503.7,-835.78 426.26,-449.28 1079.15,-715.18 1733.14,-685.24 414.18,18.96 881.22,179.72 1190.48,412.71 233.97,176.26 354.79,291.72 535.94,541 145.69,200.49 271.59,482.17 334.59,731.69 49.87,197.55 45.52,237.89 63.17,411.71 5.57,54.8 -5.19,36.06 24.12,48.85 49.46,-157.07 -122.6,-683.93 -199.92,-860.37 -116.28,-265.35 -287.56,-477.57 -446.32,-640.97l-142.91 -129.22c-313.95,-305.89 -901.42,-520.69 -1358.75,-540.51 -516.73,-22.39 -1054.9,135.42 -1452.85,437.44 -29.63,22.48 -44.89,34.07 -73.98,56.91 -329.74,258.91 -595.82,637.15 -730.72,1040.68 -17.35,51.9 -107.98,355.94 -93.89,419.98l5.31 13.38z"/>
   <path class="fil0" d="M2276.96 6228.38c-11.65,-46.96 -14.54,-172.3 -55.62,-194.93 -21.74,34.47 74.84,354.98 93.75,408.85 44.8,127.61 97.62,247.12 159.25,353.89 172.9,299.56 231.08,344.58 452.54,574.36 141.67,146.99 393.91,309.42 628.41,408.39 538.43,227.24 1173.24,255.44 1723.22,32.41 405.17,-164.31 619.7,-326.65 900.17,-640.92l116.91 -144.69c160.5,-216.09 303.34,-523.25 365.52,-792.62 13.93,-60.34 22.91,-64.09 10.06,-94.1 -29.54,19.26 -15.9,2.75 -27.22,47.72 -36.59,145.51 -43.37,184.72 -103.84,339.28 -333.24,851.66 -1176.02,1435.86 -2154.26,1412.12 -937.2,-22.75 -1749.53,-632.77 -2052.92,-1514.38 -22.74,-66.06 -38.57,-125.21 -55.97,-195.38z"/>
   <path class="fil0" d="M2682.99 5065.86c-9.24,35.17 7.68,36.5 35.77,56.01 28.39,19.71 48.02,29.01 65.15,57.73 -27.45,2.69 -42.85,3.81 -69.97,4.69 -69.98,2.24 -66.42,-0.3 -73.27,20.74 -1.9,28 3.47,18.88 43.7,31.15 58.95,17.99 181.15,67 209.5,51.16 4.08,-57.57 5.88,-15.99 -117.7,-66.92 0.44,-0.06 177.33,-3.63 24.39,-79.28 42.75,1.77 103.83,37.11 131.49,25.39 4.95,-39.9 8.45,-31.63 -39.46,-46.23 -24.71,-7.53 -44.29,-12.61 -70.59,-20.74 -41.74,-12.9 -108.48,-45.36 -139.01,-33.71z"/>
   <path class="fil0" d="M3076.36 4631.07c-41.73,-11.07 -112.16,-52.41 -150.9,-28.31 5.58,38.76 66.57,71.4 97.19,94.52l85.22 66.42c38.6,16.46 14.98,8.21 27.94,-3.3 24.33,-29.91 -57.64,-66.84 -81.8,-96.52 31.27,7.5 46.17,22.59 75.93,11.31 11.06,-28.62 -1.87,-27.2 -16.69,-65.85 62.92,26.41 86.39,88.61 108.55,47.54 17.78,-32.94 -203.87,-174.33 -206.43,-175.61 -25.88,56.13 11.26,45 60.98,149.8z"/>
   <path class="fil0" d="M5865.8 4681.94c-1.89,4.7 -145.07,215.98 3.86,106.39l131.37 -91.43c40.93,-27.44 29.87,-20.06 19.1,-58.59l-119.47 71.86c54.61,-91.43 150.34,-215.81 -38.78,-81.28 -23.34,16.6 -111.36,66.67 -114.7,88.01 -10.77,68.72 71.63,-7.03 118.63,-34.96z"/>
   <path class="fil0" d="M5707.91 4441.68c7.88,-7.38 19.93,-23.18 21.78,-24.93 18.58,-17.5 8.72,-12.79 36.15,-16.79 16.97,42.31 6.29,51.58 -30.96,66.06 -26.22,-15.53 -9.94,-0.78 -26.98,-24.34zm-140.68 80.54l24.42 26.26c26.69,-18.7 59.8,-48.04 80.96,-72.09 -4.36,79.1 -70.66,80.48 -16.13,143.73 23.94,-25.13 23.06,-45.62 39.53,-76.52 33.22,-62.35 26.8,-15.35 82.11,-48.33 79.62,-47.47 28.94,-125.04 -23.09,-156.13 -39.82,17.65 -153.92,143.79 -187.8,183.09z"/>
   <path class="fil0" d="M6149.06 5189.33c-1.7,-42.67 -19.81,-22.64 22.04,-40.43 37.65,-16 46.66,-1.9 41.5,32.24 -30.78,19.46 -34.85,21.46 -63.55,8.19zm-162.17 -2.65c33.46,27.24 60.65,-9.06 115.01,-7.24 -20.99,26.3 -67.22,51.9 -91.88,77.6 6.23,29.96 -0.36,18.48 18.33,37.83 26.94,-23.17 37.44,-28.51 66.18,-51.85 45.91,-37.3 21.1,-4.35 83.13,-3.72 103.46,1.05 85.72,-85.46 61.4,-152 -45.49,10.73 -87.82,24.69 -132.28,38.17 -100.39,30.45 -115.52,17.08 -119.9,61.23z"/>
   <path class="fil0" d="M3731.46 4138.78c26.41,27.02 45.14,46.86 0,72.54 -13.97,-10.17 -4.95,3.56 -20.94,-21.71 -25.14,-39.73 -10.59,-47.17 20.94,-50.82zm-32.68 -75.69c11.83,36.02 0.93,30.57 -7.91,44.18 -22.03,-5.4 -15.72,10.34 -32.62,-25.48 -6.39,-13.54 -6.84,-22.72 -7.62,-40.64 32.29,-2.65 39.22,-5.26 48.15,21.94zm-106.68 -37.52l111.25 242.88c175.12,-58.42 71.25,-102.51 36.41,-206.59 -6.98,-20.84 -12.41,-40.88 -29.33,-52.61 -40.56,-28.13 -86.76,-0.5 -118.32,16.32z"/>
   <path class="fil0" d="M4506.66 3929.84c-10.59,-27.03 -6.11,-31.04 -3.62,-65.64 64.48,-9.6 68.5,62.43 3.62,65.64zm-20.13 156.02l11.5 -112.25c0.7,1.63 3.44,2.01 4.22,5.78l28.73 65.43c16.26,53.44 9.3,43.56 59.56,44.57l-36.87 -110.65c19.63,-29.83 58.37,-63.29 28.32,-124.91 -18.06,-37.04 -70.16,-41.43 -120.52,-32.49 -0.07,48.5 -2.92,98.68 -5.24,147.19 -2.78,58.19 -24.82,111.81 30.3,117.33z"/>
   <path class="fil0" d="M3199.41 6917.32c17.87,-52.94 65.4,-95.22 33.78,-135.02 -30.95,30.24 -59.31,56.75 -93.61,87.75 -77.2,69.8 -78.14,64.11 -58.71,94.77 30.47,-6.48 59.66,-47.15 87.63,-65.72 -30.11,84.78 -31,72.74 49.18,50.34 -30.77,38.66 -59.84,48.03 -62.34,77.59l3.66 10.67c21.57,20.89 101.69,-68.92 141.35,-108.08 112,-110.58 -58.85,-25.69 -100.94,-12.3z"/>
   <path class="fil0" d="M5428.67 4352.59c-0.89,-20.19 94.84,-177.94 120.58,-128.41 12.19,23.45 -35.6,74.65 -48.9,93.78 -17.55,25.24 -36.28,68.4 -71.68,34.64zm76.89 -174.46c-35.72,15.22 -80.89,82.37 -104.83,121.21 -41.07,66.62 20.76,226.72 178.16,-13.8 40.78,-62.31 -2.21,-137.71 -73.33,-107.41z"/>
   <path class="fil0" d="M2885.93 6473.4c31.44,-73.3 85.05,-50.75 77.7,-117.36 -38.37,5.98 -82.78,33.98 -116.18,50.46 -103.72,51.16 -91.79,24.39 -89.74,68.81 29.53,13.3 68.7,-21.25 101.82,-31.75 -23.58,46.88 -31.03,15.36 -30.2,59.2l36.25 6.38c2.13,0.43 6.2,1.47 8,1.86l-74.45 52.16c28.18,39.33 65.83,0.28 111.68,-22.33 37.74,-18.62 90.59,-33.64 112.07,-62.81 -26.4,-32.33 -88.67,-10.5 -136.93,-4.62z"/>
   <path class="fil0" d="M2940.82 4919.54c-40.03,3.43 -26.24,-21.76 -59.31,-42.12l70.66 11.57 -11.35 30.55zm-153.35 -95.33c0.38,39.14 44.38,70.1 90.39,108.59 29.69,24.83 81.69,80.23 111.71,93.52 17.23,-44.49 6.04,-31.06 -13.38,-71.2 56.61,-110.45 48.74,7.25 87.94,-78.28 -45.96,-14.06 -254.58,-70.98 -276.67,-52.64z"/>
   <path class="fil0" d="M4229.96 3940.17l26.35 69.29 -39.87 -0.12 13.52 -69.17zm-55.53 169.83c72.53,-14.91 -3.95,-49.54 70.17,-53.23 82.77,-4.12 -2.33,44.54 89.62,31.25l-91.07 -228.66c-13.29,-21.12 -4.82,-15.77 -28.45,-25.73 -33.36,22.52 -23.08,49.82 -34.15,133.08 -4.64,34.87 -25.34,112.57 -6.12,143.29z"/>
   <path class="fil0" d="M3268.18 4382.17c31.04,14.84 39.91,14.27 58.22,39.37 -24.89,35.4 -6.85,11.58 -31.93,23.63l-26.29 -63zm-70.29 -81.59c-11.01,23.74 87.8,233.07 120.81,251.76 36.1,-37.49 15.61,-12.73 9.06,-70.13 60.31,-33.64 17.48,-40.83 87.61,-14.32 8.28,-10.75 13.88,-18.35 22.55,-28.91l-180.12 -118.06c-30.94,-20.94 -30.31,-27.97 -59.91,-20.34z"/>
   <path class="fil0" d="M5870.69 6912.16c1.16,-2.72 5.04,-1.24 7.31,-2.44 5.8,-19.28 -10.59,-33.94 -14.61,-38.07 -9.78,-10.04 -28.16,-22.42 -40.28,-31.62 -43.37,-32.94 -106.18,-120.32 -125.06,-79.28 -17.92,38.94 -2.21,11.2 1,18.89 7.17,17.18 49.65,38.41 67.87,66.07 -49.19,-14.32 -96.6,-45.92 -126.89,-22.29 7.87,33.38 158.85,153.77 171.56,161.04l20.21 -24.1c-5.3,-7.25 -74.54,-73.07 -80.79,-76.31 25.65,3.23 34.52,8.74 60.13,18.91 7.72,3.06 54.85,20.23 59.55,9.21z"/>
   <path class="fil0" d="M4788.55 4075.24c-70.96,-27.63 22.2,-36.78 -60.41,-49.07 -17.63,37.76 -6.39,45.12 5.41,77.88 47.25,16.39 52.9,15.44 100.61,0.04 55.61,-165.63 -91.86,-112.85 -35.55,-205.92 83.65,3.76 -17.9,32.65 71.33,48.48 22.73,-103.2 -92.3,-123.14 -119.54,-54.87 -46.58,116.76 109.05,105.56 38.13,183.47z"/>
   <path class="fil0" d="M5886.16 4937.52c4.33,26.59 24.55,90.89 47.15,102.41 4.18,2.13 -18.3,17.29 18.27,1.12 30.73,-13.59 11.1,-6.08 -11.32,-86.55 100.64,-36.72 39.31,-11.8 96.66,23.84 46.43,-19.05 18.51,-24.82 8.11,-72.8l64.81 -27.06c10.56,31.73 21.69,96.95 57.96,58.29 12.01,-29.01 -27.7,-78.42 -40.2,-111.85l-241.43 112.61z"/>
   <path class="fil0" d="M3784.07 7392.56l-39.06 -3.5c6.79,-76.31 24.26,-53.47 36.79,-55.51 19.98,26.73 10.59,33.37 2.27,59zm22.19 -157.27c15.04,9.19 11.24,6.47 23.37,15.35 -7.07,39.96 -2.2,48.22 -48.24,43.67l24.87 -59.02zm-108.98 166.22c22.24,16.26 60.31,39.52 97.21,23.43 38.9,-16.96 28.97,-48.71 41.72,-89.95 24.8,-80.2 73.93,-111.74 -54.74,-146.5l-84.2 213.03z"/>
   <path class="fil0" d="M5951.14 6438.57c13.32,-36.76 38.19,-17.5 66.4,-5.13l-15.02 37.22 -51.37 -32.08zm163.66 124.42l9.6 -27.28c-25.41,-24.33 -32.89,-15.39 -62.75,-36.41 -13.9,-9.79 -9.13,-7.13 -17.81,-17.04 59.64,3.17 93.72,23.57 119.53,-20.83 -26.12,-17.82 -71.09,-13.27 -106.31,-19.86 -16.56,-35.33 -0.75,-27.21 -29.83,-47.52 -80.07,-55.91 -112.3,35.84 -128.33,69.26l215.91 99.67z"/>
   <path class="fil0" d="M5254.67 4269.57c21.27,-25.18 45.54,-43.11 27.51,-61.23 -33.52,-33.7 -15.69,13.83 -71.1,20.29 -12.07,-35.66 42.6,-160.24 88.52,-165.87 26.92,46.56 -5.78,25.51 9.42,66.5 82.35,1.6 40.97,-86.48 13.28,-101.33 -58.59,-31.42 -85.89,12.52 -103.51,49.12 -33.64,69.87 -123.13,204.29 35.88,192.52z"/>
   <path class="fil0" d="M4535.25 7401.16c-5.33,34.94 -19.94,23.55 -43.17,27.52l-0.02 -61.89c25.54,3.71 48.43,0 43.19,34.37zm47.42 156.95c-66.34,-138.2 -29.68,-82.27 -15.22,-138.59 24.5,-95.41 -49.24,-89.37 -113.97,-88.87 0.01,47.62 2.61,94 3.65,141.46 1.36,61.89 -16.04,89.17 40.55,95.8l-3.17 -99.16c60.61,61.25 12.62,111.09 88.15,89.36z"/>
   <path class="fil0" d="M3867.64 3907.7l73.3 259.49c122.28,-29.65 109.89,-19.97 109.09,-57.74 -28.08,-18.56 -39.4,2.47 -84.66,1.47l-15.47 -65.52c47.33,-10.38 63.28,-1.11 44.42,-46.69l-57.78 6.99 -20.15 -70.24c36.39,-6.93 52.26,-6.63 73.84,-27.36l-54.66 -18.91c-31.11,8.7 -37.16,13.54 -67.92,18.51z"/>
   <path class="fil0" d="M5342.33 7117.11c21.14,-1.37 107.2,95.28 76.59,138.93 -24.09,-5.89 -106.04,-102.23 -76.59,-138.93zm26.24 157.5c42.43,42.62 111.17,10.61 99.77,-49.6 -3.35,-17.68 -60.56,-111.86 -75.01,-126.23 -46.44,-46.2 -114.73,-16.15 -100.45,51.04 1.72,8.11 70.55,119.61 75.7,124.78z"/>
   <path class="fil0" d="M5563.75 7029.27c-28.25,-3.91 -14.92,16.3 -47.7,-41.76 5.63,-11 16.11,-10.22 27.57,-14.26 19.69,14.41 37.67,22.62 20.13,56.02zm54.35 -4.31c-0.74,-2.32 -1.69,-5.43 -2.46,-8.02 -5.76,-19.53 -9.52,-66.24 -54.51,-78.33 -50.99,-13.7 -79.8,26.53 -95.54,50.14l156.15 166.7c0.92,-2.19 4.78,-0.27 7.06,-0.93 0.77,-2.43 1.37,-5.98 1.36,-7.53 -0,-1.5 0.88,-5.53 0.71,-7.33 -0.16,-1.74 -0.05,-5.24 -0.45,-7.1 -7.51,-35.03 -23.9,-14.42 -46.46,-67.74 36.14,12.04 35.65,17.9 64.45,32.57 56.29,28.67 50.77,-4.31 51.54,-5.19 -7.05,-36.53 -68.89,-26.22 -81.87,-67.24z"/>
   <path class="fil0" d="M4261.63 7415.42l9.37 57.95 -32.96 -3.85 23.59 -54.1zm-84.49 132.55c44.73,-0.3 18.98,3.74 47.63,-31.74 110.79,3.56 10.06,48.31 97.36,43.06l-33.94 -220.48c-7.48,-18.83 -0.96,-5.7 -13.08,-19.33 -24.4,8.62 -15.44,2.69 -28.92,23.48l-33.15 87.22c-12.97,34.08 -38.32,78.58 -35.89,117.8z"/>
   <path class="fil0" d="M3372.5 7118.55c19.65,-26.61 21.31,-23.83 48.16,-36.76l-22.51 55.72c-17.39,-10.59 -11.53,-5.34 -25.65,-18.96zm20.38 117.63c1.48,-1.79 112.97,-217.41 81.88,-231.94 -22.61,-10.56 -183.18,124.01 -198.58,149.02 52.1,22.91 15.86,-0.1 72.28,-1.81 66.71,66 -14.57,34.57 44.42,84.73z"/>
   <path class="fil0" d="M2996.77 6738l-7.23 -21.25c20.54,-18.66 19.4,-15.13 51.11,-21.46 -20.17,30.19 -15.36,28.78 -43.88,42.71zm116.92 -66.91c70.96,-103.65 -219.75,41.07 -225.79,46.67 34.3,34.78 15.71,7.98 48.09,16.17 26.69,6.74 8.22,-0.05 38.98,33.61 -16.28,43.3 -33.7,21.24 -3.58,65.19l142.3 -161.64z"/>
   <path class="fil0" d="M5841.44 6636.39c9.38,-21.21 57.19,-88.31 -0.19,-66.34 -18.67,7.15 -46.32,62.95 -51.55,76.41 50.53,52.37 134.54,83.15 182.6,130.39 18.43,-11.27 7.54,-1.32 24.9,-19.31l43.25 -74.98c-59.04,-20.72 -26.56,3.49 -76.5,42.29 -23.92,-22.14 -13.25,-14.19 -42.3,-24.22 11.29,-32.31 14.33,-28.51 24.48,-55.61l-24.48 -14.17c-28.31,28.66 -22.68,28.24 -49.04,35.66 -10.65,-12.51 -21.76,-21.67 -31.17,-30.12z"/>
   <path class="fil0" d="M4735.62 7347.94c49.71,-7.51 -4.79,22.09 67.9,23.88 -18.62,-136.2 -174.1,-30.65 -92.48,46.76 36.81,34.92 89.85,16.08 69.43,83.1 -73.54,-11.85 5.51,-30.28 -69.27,-26.5 1.14,82.76 110.36,88.86 112.26,7.21 2.39,-102.23 -122.83,-54.7 -87.84,-134.46z"/>
   <path class="fil0" d="M5201.32 7370.02c-45.31,-6.96 -108.19,-154.28 -55.41,-142.56 41.69,9.26 -7.11,32.79 48.55,17.43 0.65,-2.63 4.09,-7.7 1.71,-20.89l-27.22 -33.58c-118.67,-45.64 -79.01,137.5 -18.35,201.56 42.61,45 107.84,1.09 97.81,-47.91 -9.06,-44.24 -10.69,-24.77 -30.07,-32.5 -36.29,39.36 9.48,4.79 -17.02,58.44z"/>
   <path class="fil0" d="M4021.51 7320.98c2.01,-0.81 5.08,-1.41 6.33,-1.53 1.26,-0.13 4.9,-0.96 6.51,-1.06l61.9 -7.47c-8.81,-26.47 18.57,-15.32 -40.81,-31.79 -16.22,-4.5 -41.28,-7.96 -59.55,-9l-52.26 222c28.91,15.83 76.41,29.37 99.84,20.13 0.29,-58.75 -10.16,-12.16 -57.33,-50.32l10.4 -50.17 54.89 -0.18c1.96,-34.46 5.31,-12.92 -14.92,-32.54l-18.99 -13.15c-1,-3.34 -4.58,-2.71 -6.72,-4.73l10.7 -40.19z"/>
  </g>
 </g>
</svg>
